<svg xmlns="http://www.w3.org/2000/svg" xmlns:xlink="http://www.w3.org/1999/xlink" width="215.723" height="212.203" viewBox="0 0 215.723 212.203"><defs><style>.a{fill:#aadaff;}.b{fill:#5990b9;}.c{fill:#323351;}.d{fill:#282b49;}.e{fill:#242642;}.f{fill:#d3837a;}.g{fill:#cc7a6e;}.h{fill:#ebba77;}.i{fill:#e5af6e;}.j{fill:#c6884a;}.k{fill:#dda466;}.l{fill:#dda99b;}.m{fill:#e8baaa;}.n{fill:#d37971;}.ac,.o,.r,.v{fill:#fff;}.o{opacity:0.1;}.p{fill:#16192b;}.q{fill:#21253f;}.r{stroke:#707070;stroke-width:0.5px;}.s{fill:url(#a);}.t{fill:#be917a;}.u{fill:#a3725d;}.w{fill:#4b968f;}.x{fill:#62a7a2;}.y{fill:#e5a85e;}.z{fill:#e09c53;}.aa{fill:#c66460;}.ab{fill:#bc5353;}.ac{opacity:0.5;}.ad{fill:#f2f2f2;}.ae{fill:#98d5cd;}</style><linearGradient id="a" x1="0.43" y1="-0.324" x2="0.636" y2="1.162" gradientUnits="objectBoundingBox"><stop offset="0" stop-color="#e8baaa"/><stop offset="1" stop-color="#d69d89"/></linearGradient></defs><g transform="translate(0 0)"><path class="a" d="M513.54,972.61h108c5.157,0,10.727.656,15.673-1.175,4.6-1.7,9.027-5.031,12.722-8.343,20.786-18.632,24.973-53.729,12.835-78.892-4.861-10.077-12.21-18.429-19.372-26.662-8.386-9.64-15.658-20.722-24.859-29.5-10.885-10.383-25.094-14.216-39.275-10.347-10.4,2.838-19.785,9.061-27.89,16.587-6.387,5.931-10.971,13.318-16.775,19.824-6.008,6.734-12.677,12.736-19.089,19.014-9.983,9.774-19.646,20.723-24.046,34.408-5.91,18.382-1.641,42.7,10.916,57A30.061,30.061,0,0,0,513.54,972.61Z" transform="translate(-484.405 -773.059)"/><g transform="translate(0 0)"><g transform="translate(13.716 20.584)"><ellipse class="b" cx="80.79" cy="9.424" rx="80.79" ry="9.424" transform="translate(0 172.772)"/><g transform="translate(16.009)"><g transform="translate(29.39 1.443)"><path class="c" d="M867.244,764.943c-2.615.679-5.1,1.068-7.736,1.58-.482.094-.967.191-1.46.294a.46.46,0,0,1-.362-.075l-.72-.508-.754-.532a.463.463,0,0,0-.729.337.449.449,0,0,0,.094.315.362.362,0,0,1,.024.034.454.454,0,0,1,.026.039.433.433,0,0,1,.062.165v0a.46.46,0,0,1-.506.529l-13.371-1.447-8.471-.919c-1.106-.12-2.214-.24-3.325-.274-1.307-.04-2.619.039-3.916-.113-1.887-.219-3.676-.917-5.539-1.248a40.061,40.061,0,0,0-6.862-.281,22.229,22.229,0,0,1-4.036-.311.463.463,0,0,1-.371-.431c-.009-.157-.015-.319-.019-.48a.461.461,0,0,0-.905-.112q-.138.509-.279,1.02a1.1,1.1,0,0,1-.369.666,1.084,1.084,0,0,1-.671.114l-4.058-.2q-1.232-.059-2.461-.12l-1.037-.051-.349-.017-.306-.015q-.905-.045-1.811-.088a.582.582,0,0,1-.276-.06.545.545,0,0,1-.189-.4.164.164,0,0,0,0-.03.46.46,0,0,0-.9-.041c-.041.171-.083.341-.122.512a.459.459,0,0,1-.244.307,1.644,1.644,0,0,1-1.367.028.45.45,0,0,1-.249-.321,6.91,6.91,0,0,1-.126-1.331,9.339,9.339,0,0,1,.246-2.049l0-.007c.009-.041.019-.081.03-.122l2.4-3.443.373-6.038,5.43-10.577a.46.46,0,0,0-.1-.549c-.618-.573-1.228-1.13-1.7-1.563a1.617,1.617,0,0,1-.347-1.936l1.38-2.669v0l.624-1.209a.46.46,0,0,0,.03-.069q.821-2.584,1.749-5.106.655-1.783,1.365-3.53a112.6,112.6,0,0,1,9.414-18.3,8.863,8.863,0,0,1,1.342-1.751,9.3,9.3,0,0,1,2.889-1.682,36.923,36.923,0,0,1,5.9-1.867q.287-.065.574-.124c.469-.1.941-.189,1.413-.27a17.1,17.1,0,0,1,6.473.365c.622.135,1.241.287,1.858.442s1.226.321,1.833.48c1.936.506,4.638,1.4,5.627,2.971q2.73,4.338,5.526,8.784,2.339,3.714,4.724,7.5l.7,1.188c.341.583.686,1.17.969,1.786a2.9,2.9,0,0,1,.039.662c-.009.225-.036.452-.064.675-.214,1.747-.431,3.6-.649,5.395-.038.3-.073.592-.109.885a.449.449,0,0,0,.064.294q4.274,7.013,8.705,14.289a6.686,6.686,0,0,1,.838,1.728,6,6,0,0,1-.021,2.4c-.465,3.109-.531,6.574-1.256,9.713a.455.455,0,0,0,.141.444,65.361,65.361,0,0,1,5.52,5.571A.463.463,0,0,1,867.244,764.943Z" transform="translate(-793.55 -698.443)"/><path class="d" d="M822.173,872.875a16.246,16.246,0,0,1,.831-6.332,71.232,71.232,0,0,1,3.594-9.807,26.818,26.818,0,0,0,2.3-6.144c.61-3.378-.341-6.88.177-10.273a18.512,18.512,0,0,1,3.272-7.446c1.67.439,3.057.952,4.686,1.525a1.348,1.348,0,0,1,.675.4,1.362,1.362,0,0,1,.184.785,6.943,6.943,0,0,1-.691,4c-.818,1.271-2.374,1.879-3.323,3.055a9.563,9.563,0,0,0-1.4,3.182c-1.349,4.191-3.6,8.02-5.556,11.966s-3.64,8.158-3.711,12.561a10.051,10.051,0,0,1-.652,2.928.332.332,0,0,1-.136.2C822.348,873.52,822.184,872.958,822.173,872.875Z" transform="translate(-816.981 -808.752)"/><path class="d" d="M898.361,885.863q-10.946-1.184-21.841-2.365c-1.106-.12-2.214-.24-3.325-.274-1.307-.039-2.619.039-3.916-.112-1.887-.219-3.676-.917-5.539-1.249-3.577-.641-7.342.075-10.9-.592a.463.463,0,0,1-.371-.431c-.009-.158-.015-.319-.019-.48a.461.461,0,0,0-.905-.112q-.138.509-.279,1.019a1.1,1.1,0,0,1-.369.666,1.084,1.084,0,0,1-.671.114l-4.058-.2c.66-5.856,1.811-11.687,4.4-16.954.99-2.01,2.18-3.914,3.142-5.936a29.217,29.217,0,0,0,1.974-5.558c.424-1.722.266-3.807.812-5.447.455-1.368,2.619-1.991,3.875-2.426a39.309,39.309,0,0,1,5.177-1.286,36.549,36.549,0,0,1,9.567-1.05c4.731.319,9.125,2.452,13.38,4.545a2.616,2.616,0,0,1,1.8,2.606c.51,3.687,1,7.52,3,10.656,1.419,2.217,3.6,4.122,3.97,6.727.24,1.676-.328,3.346-.59,5.018-.633,4.064.551,8.143,1.979,12.036.047.129.1.259.144.388.019.054.039.11.062.165v0A.46.46,0,0,1,898.361,885.863Z" transform="translate(-836.727 -817.183)"/><path class="d" d="M1090.713,903.735c-.482.094-.967.191-1.46.294a.459.459,0,0,1-.362-.075l-.72-.508a18.529,18.529,0,0,0-.156-3.348c-.184-1.267-.529-2.508-.693-3.777-.39-3.024.249-6.115-.2-9.129-.6-4.058-3.119-7.6-6.082-10.433-.506-.484-1.027-.952-1.522-1.447-.272-.272-.536-.551-.785-.846a15.921,15.921,0,0,1-2.83-5.537c-.12-.373-.4-1-.592-1.61q.964-.357,1.929-.718,1.262-.469,2.521-.943a15.266,15.266,0,0,0,.637,6.448c.062.188.127.369.2.553a15.628,15.628,0,0,0,1.082,2.831,20.45,20.45,0,0,0,3.022,4.259,17.769,17.769,0,0,1,2.306,2.922c1.968,3.524.605,7.983,1.612,11.892.371,1.441,1.061,2.784,1.494,4.208A15.778,15.778,0,0,1,1090.713,903.735Z" transform="translate(-1024.754 -835.655)"/><path class="d" d="M844.65,847.389a91.9,91.9,0,0,1-1.348,11.357,12.683,12.683,0,0,1-1.19,3.646,26.88,26.88,0,0,1-3.314,4.032,16.534,16.534,0,0,0-3.252,6.105,30.6,30.6,0,0,0-.75,3.747q-.686,4.454-1.174,8.932l-1.036-.051q.444-3.658.9-7.318a31.174,31.174,0,0,1,1.695-7.9c1.831-4.517,5.736-8.077,6.954-12.8a21.936,21.936,0,0,0,.054-8.442A9.817,9.817,0,0,0,844.65,847.389Z" transform="translate(-825.582 -820.663)"/></g><path class="e" d="M923.082,713.86a34.913,34.913,0,0,0-3.564-6.2c-1.521-2.392-2.914-5-5.237-6.619a16.587,16.587,0,0,0-4.941-2.088c-1.491-.435-2.989-.842-4.488-1.248a4.389,4.389,0,0,0-1.724-.228,7.121,7.121,0,0,0-1.894.779,37.62,37.62,0,0,1-4.107,1.111,10.805,10.805,0,0,0-5.156,3.941,28.159,28.159,0,0,0-3.117,5.793c-1.115,2.578-2.176,5.3-1.987,8.1a14.511,14.511,0,0,0,3.141,7.408l.4.318a25.4,25.4,0,0,0,3.864,2.516c.605.322,1.22.622,1.841.907a33.693,33.693,0,0,1,5.872,1.276,25.263,25.263,0,0,0,11.45.052,14.663,14.663,0,0,0,7.592-3.969A11.685,11.685,0,0,0,923.082,713.86Z" transform="translate(-840.714 -696.19)"/><path class="f" d="M818.169,1075.548q-1.2-8.508-2.905-16.932a91.57,91.57,0,0,0-4.776-16.966c-.487-1.177-1.026-2.334-1.6-3.47-1.244-2.458-1.91-4.741-4.3-6.346a29.888,29.888,0,0,0-4.9-2.462c-.94-.4-1.841-.786-2.628-1.185-.146-.074-.289-.149-.427-.224l-.667-.363-1.771-.967-2.617-1.429-3.115-1.7-.487-.266-.424-.231-.285-.155h-39.3l-2.016,1.139-1.983,1.12-.767.433-.418.236c-.134.076-.274.152-.417.227-.344.181-.709.359-1.091.537s-.771.352-1.172.531q-.5.224-1.025.456c-.7.316-1.419.647-2.113,1-.368.189-.729.384-1.079.591-.156.09-.309.184-.462.28a7.845,7.845,0,0,0-3.513,3.92c-.027.08-.049.163-.075.244-.306.612-.563,1.257-.809,1.893a178.321,178.321,0,0,0-9.051,32.111c-.909,4.969-1.6,10.129-.459,15.01a11.116,11.116,0,0,0,1.713,4.056,11.23,11.23,0,0,0,3.506,2.94,24.218,24.218,0,0,0,11.571,3.251,21.34,21.34,0,0,1-5.12,2.778c.91.642,1.825,1.283,2.755,1.9.169.035.339.069.509.1,1.826.337,3.682.461,5.525.679,3.952.467,7.886,1.07,11.836,1.555,3.457.424,6.924.684,10.4.94,1.736.128,3.473.251,5.21.358q.745.046,1.49.089l.745.041.141.007.119.006.746.034q.652.028,1.3.052a112.694,112.694,0,0,0,20.828-1.023q2.468-.37,4.917-.85.7-.136,1.393-.281l.509-.107c-.159.033.233-.05.326-.072l.692-.158q.518-.12,1.036-.244,1.28-.306,2.553-.637a1.783,1.783,0,0,0-.461-.453,18.583,18.583,0,0,1-3.667-3.47,13.386,13.386,0,0,1-1.574-2.734l11.612-1.208a6.424,6.424,0,0,0,3.466-1.056,5.329,5.329,0,0,0,1.263-1.658,14.65,14.65,0,0,0,1.709-5.811A27.922,27.922,0,0,0,818.169,1075.548Z" transform="translate(-704.559 -963.197)"/><path class="g" d="M877.662,1022.85q-3.567.837-7.089,1.85a2.647,2.647,0,0,0,.019-.729,2.608,2.608,0,0,0-.488-1.12H849.848l-4.766,2.691c2.369.915,4.651,2.16,6.922,3.271a18.122,18.122,0,0,0,3.039,1.237c.345.1.694.172,1.046.238a60.826,60.826,0,0,0,15.181,12.821,2.834,2.834,0,0,0,1.254.491,2.921,2.921,0,0,0,1.516-.5c5.921-3.292,11.882-6.609,17.084-10.951a42.328,42.328,0,0,1,3.721-2.965,18.442,18.442,0,0,1,3-1.58l-8.7-4.75Z" transform="translate(-806.445 -963.198)"/><g transform="translate(62.519 61.405)"><path class="h" d="M997.465,1033.7q-.217,1.831-.4,3.657-.2,1.92-.373,3.837c0,.013,0,.028,0,.041-.84,9.3-1.209,18.544-1.143,27.965a62.54,62.54,0,0,1-17.359-.418,103.43,103.43,0,0,1,2.3-21.419c0-.006,0-.01,0-.015.03-.137.058-.272.09-.409a101.619,101.619,0,0,1,4.021-13.725C988.965,1032.151,993.079,1032.619,997.465,1033.7Z" transform="translate(-978.181 -1032.616)"/><path class="i" d="M1007.983,1033.7q-.441,3.757-.778,7.494c-1.629.969-3.287,1.865-4.967,2.662a42.267,42.267,0,0,1-7.976,2.75c-1.083.27-2.173.514-3.264.742a101.7,101.7,0,0,1,4.111-14.134C999.482,1032.151,1003.6,1032.619,1007.983,1033.7Z" transform="translate(-988.698 -1032.616)"/></g><g transform="translate(40.714 38.61)"><path class="j" d="M884.7,919.933a5.6,5.6,0,0,0-1.034,3.879c.09.588.305,1.151.388,1.739.385,2.75-2.151,5.41-1.407,8.085.421,1.517,1.784,2.549,3.064,3.466l13.671,9.8a3.774,3.774,0,0,0,1.586.791,3.66,3.66,0,0,0,2.105-.553,70.35,70.35,0,0,0,15.238-10.705c1.727-1.553,3.491-3.332,3.888-5.62.363-2.1-.5-4.2-.562-6.328a7.147,7.147,0,0,0-.189-2.141,4.761,4.761,0,0,0-1.316-1.773,43.362,43.362,0,0,0-5.789-4.69,4.054,4.054,0,0,0-1.357-.677,4.485,4.485,0,0,0-1.743.092c-7.427,1.328-15.029.622-22.489,1.648a2.946,2.946,0,0,0-2.062.752A12.9,12.9,0,0,0,884.7,919.933Z" transform="translate(-877.873 -913.433)"/><path class="h" d="M901.406,925.581l1.826,2.457-.349,1.2-.054.189-5.487,3.7-6.594,4.444-9.9,5.138-.969.5-4.986-2.9-1.258-.733L861.726,929.7l-4.349-1.9-.72-.6.72-1.1,1.036-3.25V918.97l3.434-3.946a16.527,16.527,0,0,1-1.5-2.926.742.742,0,0,1-.071-.362.673.673,0,0,1,.088-.227,11.526,11.526,0,0,1,1.53-2.137,14.031,14.031,0,0,1,3.276-2.754,13.34,13.34,0,0,1,2.073-1.033c.6.9,1.115,1.711,1.711,2.613a2.081,2.081,0,0,0-1.145.418,12.142,12.142,0,0,0-2.163,1.665q.172.692.311,1.389a44.935,44.935,0,0,0,8.632,7,48.689,48.689,0,0,0,6.182,3.1c.757-.354,1.511-.72,2.255-1.1l.086-.045a42.557,42.557,0,0,0,3.846-2.229,40.813,40.813,0,0,0,5.861-4.725q.661-.638,1.3-1.3a7.408,7.408,0,0,0,1.29-1.357c.422-.808-1.053-2.444-1.578-3.044a.187.187,0,0,1-.007-.291,3.718,3.718,0,0,1,1.8-1.5c.679-.131,1.473.71,1.963,1.1a18.97,18.97,0,0,1,3.492,3.713,17.559,17.559,0,0,1-.9,2.161c.045,0,.088,0,.133.007.78.051.737.686.866,1.338q.309,1.544.617,3.087l1.708,1.912Z" transform="translate(-856.657 -905.585)"/><g transform="translate(3.364)"><path class="k" d="M1074.854,909.231a1.793,1.793,0,0,1,.389.226,6.126,6.126,0,0,1,.685.6c.457.44.912.832,1.341,1.274s.847.883,1.239,1.351c.369.426.711.873,1.044,1.327-.162.478-.352.946-.548,1.413a11.383,11.383,0,0,1-1.68,2.845c-.345.438-.722.853-1.112,1.263a9.767,9.767,0,0,0,1.31-1.086,9.433,9.433,0,0,0,1.107-1.31,9.919,9.919,0,0,0,.851-1.5,15.005,15.005,0,0,0,.649-1.586l.047-.133-.084-.119a17.547,17.547,0,0,0-1.176-1.472,16.505,16.505,0,0,0-1.337-1.324c-.236-.206-.476-.408-.723-.6-.124-.1-.25-.188-.376-.282s-.242-.184-.365-.28a5.63,5.63,0,0,0-.787-.526,1.292,1.292,0,0,0-.918-.171A.922.922,0,0,1,1074.854,909.231Z" transform="translate(-1038.701 -908.483)"/><path class="k" d="M876.136,911.353c.078-.129.169-.257.266-.388l.294-.4a16.651,16.651,0,0,1,2.665-2.839,17.078,17.078,0,0,1,3.3-2.146,11.693,11.693,0,0,0-3.567,1.8,12.826,12.826,0,0,0-1.53,1.319,15.942,15.942,0,0,0-1.319,1.532l-.291.4c-.1.137-.2.28-.29.435a1.964,1.964,0,0,0-.227.53.957.957,0,0,0-.023.34,1.15,1.15,0,0,0,.084.3c.076.176.148.311.222.464l.227.447q.229.446.486.878c.171.288.345.574.534.85s.379.545.573.817a7.182,7.182,0,0,0,1.348,1.477,9.473,9.473,0,0,1-1.116-1.627c-.331-.574-.66-1.143-.953-1.728-.147-.293-.289-.589-.43-.885l-.205-.448c-.065-.146-.14-.309-.19-.439a.772.772,0,0,1-.044-.173.413.413,0,0,1,.015-.152A1.445,1.445,0,0,1,876.136,911.353Z" transform="translate(-875.408 -905.581)"/><path class="k" d="M906.055,922.114l-.058.057.018.092.273,1.39.011.055.042.045a48.852,48.852,0,0,0,3.708,3.537c.653.553,1.32,1.09,2.007,1.6s1.4.993,2.12,1.453a36.407,36.407,0,0,0,4.528,2.412c.781.346,1.567.678,2.363.983a25.32,25.32,0,0,0,2.4.877c-.71-.266-1.369-.643-2.056-.968a27.685,27.685,0,0,0,4.03-1.841l1-.578c.329-.2.654-.411.981-.616l.962-.646.937-.681.918-.706.894-.737.874-.759c.286-.258.566-.524.85-.786a42.485,42.485,0,0,0,3.174-3.359l.038-.045,0-.048a2.964,2.964,0,0,0-.349-1.312,3.1,3.1,0,0,0-.886-.991,3.293,3.293,0,0,1,.747,1.059,2.819,2.819,0,0,1,.213,1.188q-1.6,1.617-3.282,3.133l-.86.756-.872.742-.888.721-.9.706-.918.682-.93.666-.948.641-.962.621c-1.246.784-2.534,1.5-3.852,2.178-.075-.035-.15-.07-.226-.1-.767-.366-1.534-.73-2.287-1.12s-1.5-.783-2.238-1.2-1.456-.858-2.163-1.32-1.4-.943-2.078-1.449-1.343-1.025-1.992-1.567c-1.289-1.069-2.528-2.2-3.739-3.365l-.313-1.237a10.187,10.187,0,0,1,1.415-1.22c.266-.194.534-.395.8-.576a1.9,1.9,0,0,1,.912-.334,1.91,1.91,0,0,0-.964.246c-.294.163-.574.334-.858.51A9.209,9.209,0,0,0,906.055,922.114Z" transform="translate(-900.508 -917.529)"/><path class="k" d="M1082.271,984.607c-.2.5-.407.993-.6,1.494s-.382,1-.567,1.5c-.18.478-.345.961-.515,1.442-.445.376-.878.768-1.318,1.15q-.68.608-1.351,1.226l-.667.623-.658.633c-.434.428-.868.854-1.284,1.3.5-.347.988-.716,1.473-1.084l.721-.56.712-.57q.709-.574,1.407-1.161c.46-.4.93-.783,1.383-1.188l.059-.052.022-.068c.168-.509.344-1.015.5-1.526s.325-1.022.477-1.536.3-1.029.446-1.546.279-1.037.4-1.562C1082.687,983.617,1082.478,984.112,1082.271,984.607Z" transform="translate(-1039.443 -969.214)"/><path class="k" d="M913.138,987.887l1.1.611c.371.2.745.389,1.119.579a30.987,30.987,0,0,0,4.658,1.9q-2.275-1.07-4.452-2.289-.54-.315-1.083-.621l-1.072-.64-1.065-.652-1.054-.671-1.05-.677-1.042-.691-2.078-1.4c-1.383-.936-2.764-1.88-4.178-2.781q1.913,1.632,3.924,3.137c.667.507,1.35.992,2.033,1.478l1.038.71,1.05.693,1.069.665Z" transform="translate(-898.001 -967.106)"/><path class="k" d="M967.487,1052.189q-1.485.866-3.018,1.643t-3.106,1.463q-1.571.691-3.188,1.272a2.435,2.435,0,0,1-1.51.27,4.376,4.376,0,0,1-.735-.347c-.253-.133-.5-.272-.75-.414a33.062,33.062,0,0,1-5.549-4.043,25.424,25.424,0,0,0,5.324,4.418c.247.153.494.3.746.449a4.513,4.513,0,0,0,.815.405,1.6,1.6,0,0,0,.5.082,2.2,2.2,0,0,0,.484-.056,8.042,8.042,0,0,0,.852-.264c1.1-.373,2.172-.8,3.236-1.257a45.076,45.076,0,0,0,6.127-3.246q1.464-.929,2.855-1.964c.92-.7,1.82-1.42,2.68-2.187-.938.67-1.879,1.331-2.839,1.962S968.474,1051.607,967.487,1052.189Z" transform="translate(-936.313 -1022.784)"/></g></g><g transform="translate(42.095 26.26)"><path class="l" d="M1073.968,839.95a2.99,2.99,0,0,0-2.8-3.182c-2.051-.183-4.224,1.213-5.75,2.444a1.1,1.1,0,0,0-.362.418,5.8,5.8,0,0,0,.224,2.222q.159,1.159.318,2.318c.129.941.218,1.9.388,2.832.03.166,1.629-.2,1.783-.246a10.289,10.289,0,0,0,4.833-3.129A6.431,6.431,0,0,0,1073.968,839.95Z" transform="translate(-1028.986 -836.751)"/><path class="l" d="M864.355,842.9a2.991,2.991,0,0,1,2.8-3.182c2.051-.183,4.225,1.213,5.75,2.444a1.1,1.1,0,0,1,.362.418,5.8,5.8,0,0,1-.224,2.222l-.318,2.318c-.129.941-.218,1.9-.388,2.832-.03.166-1.629-.2-1.783-.246a10.289,10.289,0,0,1-4.833-3.129A6.434,6.434,0,0,1,864.355,842.9Z" transform="translate(-864.353 -839.172)"/></g><g transform="translate(48.994 9.205)"><path class="m" d="M934.655,771.562c-.63,3.807-3.833,5.925-6.81,7.966a32.052,32.052,0,0,1-5.237,2.977,9.057,9.057,0,0,1-5.36,1.037,11.762,11.762,0,0,1-4.634-2.135c-1.6-1.119-3.24-2.259-4.75-3.482a17.662,17.662,0,0,1-3.443-3.275c-1.548-2.184-1.619-5.1-1.619-7.667V755.615a15.543,15.543,0,0,1,2.789-8.859c.384-.552.791-1.087,1.23-1.6a25.812,25.812,0,0,1,4.19-2.417c1.34-.615,2.911-.472,4.345-.877a1.491,1.491,0,0,0,.48,0,2.777,2.777,0,0,1,.7-.123c.557.023,1.114.069,1.672.092.37.014.742.014,1.115,0,.094,0,.189-.005.282-.009a35.742,35.742,0,0,1,4.031-.09l.05,0c.136.011.273.024.41.041.162.02.325.045.486.073a11.383,11.383,0,0,1,4.812,2.611,15.764,15.764,0,0,1,3.875,4.395,9.654,9.654,0,0,1,1.276,2.9c.024.123.046.246.062.369a27.935,27.935,0,0,1,.118,4.139q-.008,2.464-.015,4.931c0,.282,0,.564,0,.846q-.006,1.543-.01,3.087A39.648,39.648,0,0,1,934.655,771.562Z" transform="translate(-902.801 -741.7)"/><path class="l" d="M934.726,756.27q-.008,2.464-.015,4.931a22.833,22.833,0,0,1-5.784-2.3c-4.858-2.992-7.518-8.432-8.5-13.872-.267-1.474-.79-2.486-2.475-2.189a5.884,5.884,0,0,0-2.788,1.122,8.366,8.366,0,0,0-2.268,3.188c-.529,1.205-.885,2.478-1.3,3.727a18.125,18.125,0,0,1-6.609,9.483c-.7.5-1.433.956-2.18,1.388v-6.135a15.543,15.543,0,0,1,2.789-8.859c.384-.552.791-1.087,1.23-1.6a25.812,25.812,0,0,1,4.19-2.417c1.34-.615,2.911-.472,4.345-.877a1.491,1.491,0,0,0,.48,0,2.777,2.777,0,0,1,.7-.123c.557.023,1.114.069,1.672.092.37.014.742.014,1.115,0,.094,0,.189-.005.282-.009a35.742,35.742,0,0,1,4.031-.09l.05,0c.136.011.273.024.41.041.162.02.325.045.486.073a11.383,11.383,0,0,1,4.812,2.611,15.764,15.764,0,0,1,3.875,4.395,9.654,9.654,0,0,1,1.276,2.9c.024.123.046.246.062.369A27.935,27.935,0,0,1,934.726,756.27Z" transform="translate(-902.801 -741.7)"/></g><path class="d" d="M970.151,708.965c-.419-.6-.68-1.29-1.03-1.912-.179-.314-.345-.634-.517-.951s-.327-.641-.5-.959c-.335-.64-.665-1.283-.974-1.937a8.631,8.631,0,0,1-.783-2.035,21.276,21.276,0,0,0,1.065,1.884c.367.624.714,1.26,1.056,1.9s.643,1.3.941,1.963S969.885,708.291,970.151,708.965Z" transform="translate(-905.952 -699.24)"/><circle class="n" cx="3.423" cy="3.423" r="3.423" transform="translate(51.649 34.78) rotate(-76.827)"/><circle class="n" cx="3.423" cy="3.423" r="3.423" transform="translate(68.995 32.227) rotate(-45)"/><path class="g" d="M1135.071,1088.919c-.511,2.846-1.086,5.673-1.64,8.5-.133.708-.267,1.416-.411,2.121l-.4,2.122c-.125.709-.262,1.415-.392,2.122l-.368,2.126-.358,2.127-.328,2.131-.309,2.134q-.132,1.07-.281,2.138c-.356,2.855-.631,5.72-.854,8.6a64.781,64.781,0,0,1,.127-8.676c.06-.721.122-1.443.194-2.163l.246-2.158.3-2.15.339-2.144.392-2.135c.142-.709.276-1.42.424-2.128l.467-2.118c.16-.7.33-1.407.5-2.11C1133.41,1094.456,1134.184,1091.671,1135.071,1088.919Z" transform="translate(-1039.942 -1017.411)"/><path class="g" d="M822.1,1084.895c.95,2.731,1.788,5.5,2.543,8.287.187.7.373,1.4.55,2.1l.515,2.107c.164.7.315,1.412.473,2.117l.441,2.125.389,2.136.351,2.143.3,2.152c.088.719.167,1.439.244,2.158a64.737,64.737,0,0,1,.327,8.67c-.29-2.877-.631-5.735-1.052-8.58q-.173-1.065-.331-2.131l-.358-2.126-.377-2.123-.407-2.118-.417-2.117c-.147-.7-.3-1.407-.441-2.113l-.449-2.112c-.16-.7-.31-1.406-.46-2.111C823.321,1090.541,822.681,1087.729,822.1,1084.895Z" transform="translate(-787.591 -1014.109)"/><g transform="translate(36.394)"><path class="c" d="M861.437,707a.72.72,0,0,1-.075.141.524.524,0,0,1-.294.214.239.239,0,0,0-.092.037c-.078.068-.019.208-.076.3a.384.384,0,0,1-.272.145c-.16.017-.323-.026-.482,0-.084.014-.164.047-.248.057a.246.246,0,0,1-.229-.078l-.118.113c-.139-.1-.321-.193-.464-.1a1.259,1.259,0,0,1-.108.076.167.167,0,0,1-.208-.065.191.191,0,0,0-.043-.066c-.066-.048-.131.057-.193.109a.172.172,0,0,1-.247-.044l-.145.169a6.234,6.234,0,0,0-.78-1.752,2.787,2.787,0,0,0-.922-.74,2.82,2.82,0,0,0-2.291-.139,2.308,2.308,0,0,0-1.213,1.483,10.983,10.983,0,0,0-.369,2.14c-.086.746-.154,1.494-.251,2.24,0,.011,0,.021,0,.032-.051.38-.1.765-.156,1.145a.016.016,0,0,1,0,.009c-.051.345-.1.688-.161,1.035-.005.028-.009.058-.015.086-.137.8-.3,1.588-.506,2.37-.2.753-.427,1.5-.686,2.245a25.266,25.266,0,0,1-7.627,11.417A28.666,28.666,0,0,0,840.43,732s-3.526,2.971-3.526,2.971v5.854l-1.323-.264-2.285-6.617a6.253,6.253,0,0,1-.583-4.148c.052-.27.118-.536.195-.8a14.479,14.479,0,0,1,.851-2.171c.032-.069.066-.139.1-.208.229-.469.469-.932.708-1.391q.441-.846.879-1.7c.03-.058.062-.118.092-.178l.57-1.11c2.81-5.479,5.654-11.057,9.32-15.972a18.667,18.667,0,0,1,5.395-5.1,6.566,6.566,0,0,1,2.071-.857,11.288,11.288,0,0,1,2.733-.109c.461.024.92.056,1.376.077.834.036,1.314.7,1.831,1.278a14.569,14.569,0,0,1,1.132,1.4,9.6,9.6,0,0,1,.722,1.187c.006.009.009.019.015.028a8.385,8.385,0,0,1,.7,1.651c.006.021.01.041.015.064A1.936,1.936,0,0,1,861.437,707Z" transform="translate(-832.584 -698.42)"/><path class="o" d="M843.572,788.515a22.882,22.882,0,0,0,7.651-5.313,33.2,33.2,0,0,0,4.042-4.927q.079-.278.153-.557c.2-.734.348-1.476.48-2.224a34.2,34.2,0,0,1-5.908,6.04,23.988,23.988,0,0,1-7.121,3.788,14.656,14.656,0,0,1-3.88.788c-.159.308-.317.617-.477.923-.24.459-.48.922-.708,1.391-.034.069-.067.139-.1.208-.109.229-.212.46-.311.692A13.422,13.422,0,0,0,843.572,788.515Z" transform="translate(-836.531 -760.226)"/><path class="d" d="M877.1,728.365a2.841,2.841,0,0,0-1.868-1.334,2.4,2.4,0,0,0-1.1.013,1.857,1.857,0,0,0-.888.526,2.348,2.348,0,0,0-.5.941,6.108,6.108,0,0,0-.226,1.144c-.044.4-.071.806-.113,1.226s-.107.832-.167,1.249c-.258,1.655-.669,3.286-1.081,4.9a46.873,46.873,0,0,1-1.472,4.8c-.295.786-.613,1.567-.986,2.324a22.693,22.693,0,0,1-1.246,2.206,23.292,23.292,0,0,1-1.478,2.069,19.66,19.66,0,0,1-1.728,1.871c-1.226,1.165-2.539,2.2-3.832,3.236-1.286,1.061-2.648,2.039-4.02,2.983l-.061-.072c.584-.6,1.191-1.172,1.795-1.743l.9-.857.9-.866c.6-.578,1.22-1.138,1.829-1.7s1.21-1.124,1.792-1.7,1.142-1.165,1.672-1.778,1.026-1.267,1.5-1.936.9-1.364,1.321-2.07.815-1.428,1.177-2.171a19.866,19.866,0,0,0,1.649-4.666,37.721,37.721,0,0,0,.6-4.927l.106-1.231c.031-.409.064-.831.126-1.257a6.879,6.879,0,0,1,.295-1.292,3.038,3.038,0,0,1,.739-1.2,2.394,2.394,0,0,1,1.279-.633,2.726,2.726,0,0,1,1.364.123,3.107,3.107,0,0,1,1.134.687,2.526,2.526,0,0,1,.686,1.091Z" transform="translate(-852.071 -719.933)"/><path class="c" d="M995.616,718.633q-.394,1.825-.859,3.633-.68,2.651-1.505,5.265a27.149,27.149,0,0,0-3.312-.617,9.76,9.76,0,0,0-3.132-7.434c-1.616-1.427-3.52-2.48-5.252-3.762a22.117,22.117,0,0,1-6.643-7.8c-1.713-3.426-2.148-7.179-2.531-10.941q-.1-.973-.167-1.949a2.141,2.141,0,0,0-.474-1.531,3.465,3.465,0,0,0-1.8-.684c-.279-.041-1.125-.208-.913.322.126.309.287.611.431.911.576,1.2,1.183,2.384,1.785,3.573a4.964,4.964,0,0,1,.813,2.324.462.462,0,0,1-.274-.1l-.039.141-.225-.124a.332.332,0,0,1-.1.135l-.146-.111a.12.12,0,0,1-.08.1c-.156-.021-.311-.039-.467-.058s-.358,0-.388.148a.748.748,0,0,0-.193-.109c-.022.051-.045.1-.069.154a.606.606,0,0,0-.163-.139l-.034.124a.754.754,0,0,0-.176-.193.535.535,0,0,1-.043.178c-.049-.1-.1-.187-.161-.279-.156-.249-.332-.489-.471-.748-.186-.343-.292-.739-.463-1.091-.68-1.4-1.411-2.767-2.154-4.139a9.284,9.284,0,0,1-.675-1.426c-.017-.054-.034-.111-.051-.167a2.2,2.2,0,0,1,.011-1.406.652.652,0,0,1,.283-.349.838.838,0,0,1,.373-.081,12.581,12.581,0,0,1,4.1.855c.86.263,1.73.493,2.6.709.356.088.714.172,1.07.255q.936.214,1.878.407c1.623.332,3.258.609,4.9.821a5.281,5.281,0,0,1,1.545.352,2.185,2.185,0,0,1,1.038,1.145c1.533,3.209,3.61,6.261,5.415,9.335l.478.815q2.19,3.731,4.382,7.458l.7,1.188c.341.583.686,1.17.969,1.786.1.212.187.427.268.649a.514.514,0,0,1,.019.058c.009.028.019.056.026.084A4.677,4.677,0,0,1,995.616,718.633Z" transform="translate(-941.713 -690.403)"/><path class="d" d="M1005.239,737.192a16.163,16.163,0,0,0-.524-2.617c-.065-.21-.13-.42-.21-.624s-.157-.408-.24-.609a10.03,10.03,0,0,0-.6-1.153,8.847,8.847,0,0,0-1.637-1.98c-.645-.577-1.352-1.114-2.064-1.646-1.43-1.062-2.912-2.134-4.273-3.33a31.368,31.368,0,0,1-3.8-3.885,19.508,19.508,0,0,1-1.578-2.241,16.788,16.788,0,0,1-1.216-2.474,23.607,23.607,0,0,1-1.381-5.309c-.131-.9-.229-1.8-.3-2.7l-.1-1.35-.067-1.357c-.01-.227-.025-.451-.029-.679a5.056,5.056,0,0,0-.036-.631,1.149,1.149,0,0,0-.591-.889,4.234,4.234,0,0,0-1.2-.449,4.789,4.789,0,0,0-.644-.126.552.552,0,0,0-.279.031c-.038.015-.049.046-.063.084a.584.584,0,0,0,0,.069l.015.075-.087.035-.034-.087a.631.631,0,0,1-.017-.1.257.257,0,0,1,.1-.2.656.656,0,0,1,.368-.116,4.523,4.523,0,0,1,.7.029,4.262,4.262,0,0,1,1.374.331,1.824,1.824,0,0,1,.628.466,1.775,1.775,0,0,1,.345.721,5.522,5.522,0,0,1,.111.71l.082.666c.109.887.215,1.777.339,2.667s.244,1.772.388,2.65a29.751,29.751,0,0,0,1.221,5.15,20.06,20.06,0,0,0,1.045,2.422,22.609,22.609,0,0,0,1.333,2.3A17.581,17.581,0,0,0,995.886,725a46.124,46.124,0,0,0,4.523,2.921,14.744,14.744,0,0,1,2.183,1.678l.254.245.239.26c.164.169.3.359.455.539a8.832,8.832,0,0,1,.756,1.187,9.8,9.8,0,0,1,1.035,5.359Z" transform="translate(-957.059 -700.679)"/><path class="o" d="M1034.81,724.579l-.248-.045a30.474,30.474,0,0,1-4-1.02c-6.244-2.062-11.892-6.56-14.244-12.7-1.252-3.267-1.6-6.975-3.031-10.094-.022-.053-.047-.105-.071-.156q.937.214,1.878.407l.051.191a19.256,19.256,0,0,0,3.065,7.067c2.345,3.029,6.092,4.653,9.922,5.168.112.015.227.03.341.043q2.19,3.731,4.382,7.458l.7,1.188c.341.583.686,1.17.969,1.786.1.212.187.427.268.649A.535.535,0,0,1,1034.81,724.579Z" transform="translate(-980.806 -698.741)"/><path class="d" d="M944.236,725.9a5.44,5.44,0,0,0-2.011-2.607,4.646,4.646,0,0,0-1.468-.678,3.93,3.93,0,0,0-1.582-.1,4.219,4.219,0,0,0-.772.182,2.52,2.52,0,0,0-.673.368,3.057,3.057,0,0,0-.929,1.257,6.99,6.99,0,0,0-.419,1.608c-.1.558-.152,1.13-.26,1.694-.016-.574-.035-1.144-.015-1.722.01-.289.04-.579.077-.869a5.119,5.119,0,0,1,.206-.865,3.335,3.335,0,0,1,1.007-1.518,2.884,2.884,0,0,1,.814-.467,4.7,4.7,0,0,1,.888-.224,4.351,4.351,0,0,1,1.806.148,4.667,4.667,0,0,1,1.582.838A4.731,4.731,0,0,1,944.236,725.9Z" transform="translate(-917.524 -716.266)"/></g><path class="d" d="M1001.382,806.1c-.231-.142.239-.561.352-.645a3.329,3.329,0,0,1,.776-.4,4.918,4.918,0,0,1,1.73-.292,9.115,9.115,0,0,1,2.592.348c.357.1,2.312.648,2.35,1.071.036.4-1.912-.1-2.231-.15a13.234,13.234,0,0,0-5.282.078.419.419,0,0,1-.253.011A.213.213,0,0,1,1001.382,806.1Z" transform="translate(-934.648 -784.243)"/><path class="d" d="M933.646,807.35a3.31,3.31,0,0,0-.787-.381,4.918,4.918,0,0,0-1.738-.243,9.126,9.126,0,0,0-2.581.421c-.354.111-2.292.713-2.319,1.136-.025.4,1.908-.155,2.226-.213A13.232,13.232,0,0,1,933.73,808a.418.418,0,0,0,.253,0,.224.224,0,0,0,.033-.018C934.244,807.837,933.762,807.43,933.646,807.35Z" transform="translate(-873.026 -785.852)"/><path class="p" d="M802.289,1421.579a19.978,19.978,0,0,0-3.041-.737H726.362a73.761,73.761,0,0,1-10.449,0H702.585c-5.461,2.174-3.229,8.7,0,13.048,5.075,6.841,14.977,11.015,22.894,13.438a76.736,76.736,0,0,0,24.752,3.179c16.749-.512,33.02-5.689,48.518-12.06,3.465-1.424,7.281-3.7,9.2-7.024a5.654,5.654,0,0,0-.778-6.914A11.04,11.04,0,0,0,802.289,1421.579Z" transform="translate(-686.8 -1289.776)"/><g transform="translate(0 129.562)"><g transform="translate(72.521 32.668)"><path class="m" d="M1033.922,1602.431c2.5.6,4.967,1.287,7.4,2.087,4.558,1.5,8.958,3.552,13.415,5.392,1.455.6,2.913,1.179,4.386,1.707a40.518,40.518,0,0,0,13.6,2.723c4.078.019,8.706-.811,12.1-3.195,2.819-1.98,5.64-6.318,4.195-9.886-1.179-2.913-4.988-3.431-7.722-3.607-5.329-.343-10.652.277-15.967.59a58.018,58.018,0,0,1-6.594.015,74.927,74.927,0,0,1-10.349-1.349q-6.054-1.18-12.1-2.391Q1035.168,1598.495,1033.922,1602.431Z" transform="translate(-1033.922 -1594.518)"/><path d="M1149.936,1623.785c1.455.6,2.913,1.179,4.387,1.707a40.519,40.519,0,0,0,13.6,2.723c4.078.019,8.706-.811,12.1-3.195,2.819-1.98,5.64-6.318,4.195-9.886-1.179-2.913-4.989-3.431-7.722-3.607-5.329-.343-10.652.277-15.967.59a58.014,58.014,0,0,1-6.594.015,26.132,26.132,0,0,1-1.532,6.362A34.341,34.341,0,0,1,1149.936,1623.785Z" transform="translate(-1129.119 -1608.392)"/></g><path class="d" d="M721.655,1443.429c0,.027-.01.057-.016.084s-.016.064-.022.1-.014.057-.022.084c-.068.26-.129.522-.19.786-1.506,5.069-3.035,10.13-4.548,15.2q-7.53-.689-15.009-1.8a.063.063,0,0,0-.02,0l0,0c-3.68-.452-7.347-1.015-11.008-1.609q-5.5-.927-10.967-2.018c-3.649-.716-7.28-1.514-10.906-2.325-3.622-.833-7.251-1.646-10.841-2.667a76.388,76.388,0,0,1-10.529-3.786,42.255,42.255,0,0,1-8.917-5.35q-.317-.255-.624-.516a24.943,24.943,0,0,1-6.8-8.845c-.092-.215-.2-.424-.278-.645l-.246-.657c-.174-.434-.3-.886-.438-1.334a10.492,10.492,0,0,1-.506-2.761,8.335,8.335,0,0,1,.348-2.779,8.558,8.558,0,0,1,1.214-2.427c.012-.02.026-.039.039-.059a13.831,13.831,0,0,1,3.886-3.622,26.926,26.926,0,0,1,4.128-2.169,22.4,22.4,0,0,1,4.535-1.4,23.652,23.652,0,0,1,3.467-.422,29.69,29.69,0,0,1,6.025.356,51.78,51.78,0,0,1,10.517,3l.021.008c2.652.933,5.235,2.04,7.82,3.139,2.575,1.132,5.137,2.3,7.709,3.445s5.128,2.325,7.691,3.489c1.285.579,2.554,1.185,3.825,1.791l.174.084,3.635,1.738q3.8,1.848,7.576,3.733c2.513,1.269,5.028,2.532,7.519,3.845s4.979,2.632,7.46,3.964l1.727.941,1.979,1.08Z" transform="translate(-629.756 -1412.458)"/><path class="q" d="M762.361,1513.6c0,.027-.01.057-.016.084s-.016.065-.021.1-.014.057-.021.084c-.068.26-.129.522-.19.786-1.506,5.069-3.035,10.13-4.549,15.2q-7.53-.689-15.009-1.795a.066.066,0,0,0-.02,0l0,0c-3.68-.452-7.347-1.015-11.008-1.609q-5.5-.927-10.967-2.018c-3.649-.716-7.28-1.514-10.906-2.326-3.622-.833-7.251-1.646-10.841-2.667a76.374,76.374,0,0,1-10.529-3.786,42.254,42.254,0,0,1-8.917-5.35,112,112,0,0,0,15.071-1.158,139.8,139.8,0,0,0,23.817-6.275c4.568-1.551,9.1-3.191,13.619-4.885l3.635,1.738q3.8,1.848,7.576,3.733c2.513,1.269,5.028,2.532,7.519,3.845s4.979,2.632,7.46,3.964l1.727.941,1.979,1.08Z" transform="translate(-670.463 -1482.627)"/><g transform="translate(2.029)"><g transform="translate(0 30.445)"><path class="m" d="M696.269,1589.8c-2.431.821-4.83,1.731-7.183,2.748-4.4,1.9-8.6,4.347-12.873,6.583-1.394.729-2.794,1.437-4.214,2.1a40.519,40.519,0,0,1-13.3,3.94c-4.06.387-8.743-.021-12.34-2.088-2.986-1.717-6.187-5.783-5.071-9.467.911-3.008,4.658-3.868,7.365-4.29,5.276-.823,10.634-.687,15.955-.855a57.991,57.991,0,0,0,6.569-.581,75.013,75.013,0,0,0,10.185-2.278q5.922-1.722,11.839-3.475Q694.672,1585.988,696.269,1589.8Z" transform="translate(-641.063 -1582.128)"/><path d="M676.213,1625.436c-1.394.729-2.794,1.437-4.214,2.1a40.525,40.525,0,0,1-13.3,3.94c-4.06.387-8.743-.021-12.34-2.088-2.986-1.717-6.187-5.782-5.071-9.467.911-3.008,4.658-3.868,7.365-4.29,5.276-.823,10.634-.687,15.955-.855a58.047,58.047,0,0,0,6.569-.581,26.132,26.132,0,0,0,2.1,6.2A34.355,34.355,0,0,0,676.213,1625.436Z" transform="translate(-641.063 -1608.438)"/></g><path class="c" d="M934.3,1425.362c-.012.25-.031.5-.063.747a10.341,10.341,0,0,1-.446,2.014c-.135.448-.264.9-.438,1.334l-.244.657c-.08.221-.186.43-.278.645a24.472,24.472,0,0,1-5.882,8.033c-.3.278-.606.547-.919.811a41.09,41.09,0,0,1-9.541,5.867,76.426,76.426,0,0,1-10.531,3.786c-3.588,1.021-7.22,1.834-10.839,2.667-3.628.812-7.259,1.609-10.906,2.325s-7.3,1.4-10.969,2.018c-3.661.595-7.325,1.158-11.006,1.609l0,0a.056.056,0,0,0-.019,0q-7.48,1.094-15.011,1.8c-1.512-5.067-3.043-10.128-4.547-15.2-.063-.264-.121-.526-.19-.786-.008-.027-.016-.057-.022-.084s-.016-.062-.023-.1-.012-.057-.016-.084l.594-.326,1.981-1.08,1.727-.941c2.482-1.332,4.961-2.663,7.458-3.964s5.006-2.575,7.519-3.845,5.045-2.5,7.576-3.733l3.811-1.823c1.269-.606,2.54-1.213,3.823-1.791l2.978-1.357c1.568-.716,3.139-1.432,4.715-2.132q2.25-1.006,4.5-2.018,1.6-.719,3.211-1.427c2.583-1.1,5.169-2.206,7.818-3.139l.022-.008a51.792,51.792,0,0,1,10.519-3,29.689,29.689,0,0,1,6.025-.356,23.65,23.65,0,0,1,3.467.422,22.418,22.418,0,0,1,4.533,1.4,26.745,26.745,0,0,1,4.128,2.169,13.839,13.839,0,0,1,3.888,3.622l.039.059a8.659,8.659,0,0,1,1.214,2.427A8.337,8.337,0,0,1,934.3,1425.362Z" transform="translate(-806.276 -1412.458)"/><path class="d" d="M1147.771,1425.362c-.012.25-.031.5-.062.747a10.368,10.368,0,0,1-.446,2.014c-.135.448-.264.9-.438,1.334l-.244.657c-.08.221-.186.43-.278.645a24.474,24.474,0,0,1-5.882,8.033,12.7,12.7,0,0,0,.387-8.031c-1.375-4.371-5.534-7.29-9.789-8.992-8.953-3.583-18.865-3.119-28.459-1.349q1.6-.719,3.211-1.427c2.583-1.1,5.169-2.206,7.818-3.139l.021-.008a51.791,51.791,0,0,1,10.519-3,29.689,29.689,0,0,1,6.025-.356,23.651,23.651,0,0,1,3.467.422,22.421,22.421,0,0,1,4.533,1.4,26.762,26.762,0,0,1,4.128,2.169,13.838,13.838,0,0,1,3.887,3.622l.039.059a8.659,8.659,0,0,1,1.214,2.427A8.333,8.333,0,0,1,1147.771,1425.362Z" transform="translate(-1019.751 -1412.458)"/></g></g><path class="d" d="M940.335,836.049a2.514,2.514,0,0,1,1.816.5c.148.12.578.479.372.655-.264.226-.695-.017-.933-.142a3.221,3.221,0,0,0-3.073.128c-.281.166-.618.251-.744-.14a.229.229,0,0,1,0-.176.115.115,0,0,1,.152-.054c.039.024.086.079.117.044.05-.152.138-.328.3-.338a1.187,1.187,0,0,1,.2.033c.214.025.388-.16.578-.261a2.106,2.106,0,0,1,.661-.127C939.97,836.136,940.141,836.069,940.335,836.049Z" transform="translate(-882.491 -809.904)"/><path class="d" d="M1014.178,836.049a2.515,2.515,0,0,0-1.816.5c-.148.12-.578.479-.372.655.264.226.695-.017.933-.142a3.221,3.221,0,0,1,3.073.128c.281.166.618.251.744-.14a.231.231,0,0,0,0-.176.115.115,0,0,0-.152-.054c-.04.024-.086.079-.117.044-.05-.152-.138-.328-.3-.338a1.189,1.189,0,0,0-.2.033c-.214.025-.388-.16-.578-.261a2.106,2.106,0,0,0-.661-.127C1014.543,836.136,1014.372,836.069,1014.178,836.049Z" transform="translate(-943.359 -809.904)"/><path class="r" d="M964.621,909.026a15.857,15.857,0,0,0,4.758.595,20.671,20.671,0,0,0,5.094-1.041s-2.111,4.611-4.574,4.722S964.621,909.026,964.621,909.026Z" transform="translate(-904.535 -867.995)"/><path class="s" d="M0,1.254a6.158,6.158,0,0,0,3.022,1.14C4.337,2.323,5.054.8,5.5,0" transform="translate(62.222 34.577) rotate(11)"/></g><g transform="translate(8.073 77.716)"><g transform="translate(0 48.414)"><path class="t" d="M600.232,1410.844l-1.842,7.4-11.152,44.789a.833.833,0,0,1-.986.525h0a.785.785,0,0,1-.714-.824l7.021-44.607,1.322-8.4a.816.816,0,0,1,1-.575l4.65.816A.769.769,0,0,1,600.232,1410.844Z" transform="translate(-585.529 -1406.302)"/><path class="t" d="M1330.855,1463.561a.834.834,0,0,1-.988-.525l-8.161-32.787-4.831-19.4a.766.766,0,0,1,.7-.873l4.65-.816a.817.817,0,0,1,1,.575l3.435,21.823,4.907,31.185A.783.783,0,0,1,1330.855,1463.561Z" transform="translate(-1185.632 -1406.302)"/><path class="u" d="M632.373,1410.844l-1.842,7.4q-2.917-.068-5.832-.116l1.322-8.4a.816.816,0,0,1,1-.575l4.65.816A.769.769,0,0,1,632.373,1410.844Z" transform="translate(-617.671 -1406.302)"/><path class="u" d="M1326.661,1431.552q-2.466-.69-4.955-1.3l-4.831-19.4a.766.766,0,0,1,.7-.873l4.65-.816a.817.817,0,0,1,1,.575Z" transform="translate(-1185.632 -1406.302)"/><rect class="t" width="141.029" height="5.373" rx="2.686" transform="translate(2.651)"/></g><g transform="translate(32.25)"><path class="c" d="M846.838,1126.359a2.37,2.37,0,0,0-2.194-2.841H767.489a2.37,2.37,0,0,0-2.194,2.841l6.424,39.966.474,2.949h-4.428a1.213,1.213,0,0,0-1.209,1.209v.241a1.213,1.213,0,0,0,1.209,1.209h76.6a1.212,1.212,0,0,0,1.209-1.209v-.241a1.212,1.212,0,0,0-1.209-1.209h-4.427l4.807-29.913Z" transform="translate(-765.261 -1123.518)"/><circle class="v" cx="8.732" cy="8.732" r="8.732" transform="translate(32.074 14.15)"/><path class="d" d="M874.28,1211.809l-5.235,32.572H802.152l-.9-5.607A243.705,243.705,0,0,0,874.28,1211.809Z" transform="translate(-794.792 -1195.967)"/></g><g transform="translate(5.199 5.843)"><g transform="translate(4.096)"><g transform="translate(3.373 1.676)"><path class="w" d="M666.7,1173.717a49.7,49.7,0,0,1-6.5,17.8,4.285,4.285,0,0,1-1.542,1.662,1.363,1.363,0,0,1-.279.092,1.159,1.159,0,0,1-.532-.018,1.182,1.182,0,0,1-.481-.259,1.148,1.148,0,0,1-.143-.146,2.7,2.7,0,0,1-.5-1.32c-.037-.229-.06-.455-.075-.664-.008-.087-.014-.171-.02-.251-.061-.845-.145-1.686-.228-2.527-.029-.3-.057-.6-.084-.9-.02-.237-.04-.473-.058-.71a43.892,43.892,0,0,1,.94-13q.224-.98.5-1.944a10.974,10.974,0,0,1,2.485-5,3.774,3.774,0,0,1,.7-.541c.082-.05.167-.1.253-.14a3.954,3.954,0,0,1,1.443-.417c.066-.006.131-.011.2-.013a3.652,3.652,0,0,1,1.269.175,1.715,1.715,0,0,1,.186.065c.04.014.081.03.121.048a3.472,3.472,0,0,1,1.031.681c.068.065.135.132.2.2a5.711,5.711,0,0,1,1.345,3.071A13.348,13.348,0,0,1,666.7,1173.717Z" transform="translate(-656.129 -1165.425)"/><path class="x" d="M657.788,1185.774q-.307,2.141-.554,4.292c-.029-.3-.057-.6-.084-.9q.258-2.126.572-4.245c.331-2.209.716-4.409,1.175-6.6s.983-4.331,1.6-6.465c.375-1.3.762-2.6,1.222-3.882.082-.05.167-.1.253-.141-.591,1.612-1.073,3.268-1.53,4.915-.592,2.141-1.1,4.3-1.536,6.48S658.1,1183.582,657.788,1185.774Z" transform="translate(-656.967 -1167.402)"/><path class="x" d="M660.22,1185.662c-.46,1.945-.8,3.913-1.146,5.881-.037-.23-.06-.455-.075-.664.359-2.047.738-4.088,1.24-6.106.581-2.336,1.208-4.662,1.79-7s1.152-4.693,1.7-7.046q.616-2.633,1.2-5.275c.067-.006.131-.011.2-.013q-.691,3.117-1.422,6.22-.826,3.509-1.706,7.008C661.414,1181,660.772,1183.321,660.22,1185.662Z" transform="translate(-658.484 -1165.437)"/><path class="x" d="M665.588,1185.6q-1.056,3.233-2.4,6.365-.4.928-.817,1.842a1.13,1.13,0,0,1-.143-.146q.577-1.252,1.1-2.524,1.307-3.146,2.329-6.4,1.013-3.22,1.739-6.52t1.164-6.675c.219-1.7.382-3.418.483-5.132a1.683,1.683,0,0,1,.186.065q-.178,2.949-.586,5.873-.47,3.374-1.237,6.695T665.588,1185.6Z" transform="translate(-661.137 -1166.234)"/><path class="x" d="M675.872,1171.041a46.116,46.116,0,0,1-.083,5.079,48.083,48.083,0,0,1-6,20.076q-.405.722-.836,1.432a1.37,1.37,0,0,1-.279.091q.733-1.188,1.39-2.42a47.609,47.609,0,0,0,2.841-6.4,48.306,48.306,0,0,0,1.879-6.744,47.589,47.589,0,0,0,.876-6.974q.112-2.168.017-4.34C675.743,1170.906,675.809,1170.972,675.872,1171.041Z" transform="translate(-666.421 -1169.869)"/></g><path class="x" d="M643.42,1166.362a.63.63,0,0,1-.136.384.313.313,0,0,1-.037.033.385.385,0,0,1-.133.068.6.6,0,0,1-.193.028c-1.475.018-2.923-1.429-3.86-2.68-.168-.224-.319-.44-.45-.64a7.249,7.249,0,0,1-1.127-5.4,3,3,0,0,1,1.453-1.995.979.979,0,0,1,.19-.059,1.191,1.191,0,0,1,.818.135c1.3.7,1.291,2.646,1.484,3.9a18.272,18.272,0,0,0,.8,3.374,8.19,8.19,0,0,0,.635,1.412A2.5,2.5,0,0,1,643.42,1166.362Z" transform="translate(-637.333 -1156.083)"/><path class="w" d="M650.575,1166.851a.323.323,0,0,1-.037.033.39.39,0,0,1-.133.068c-.24-.218-.471-.444-.693-.682a11.772,11.772,0,0,1-2.672-4.676,16.6,16.6,0,0,1-.813-5.326,1.02,1.02,0,0,1,.191-.059,13.1,13.1,0,0,0,.174,2.6,20.167,20.167,0,0,0,.748,3.107,11.33,11.33,0,0,0,1.125,2.417A11.468,11.468,0,0,0,650.575,1166.851Z" transform="translate(-644.625 -1156.188)"/></g><g transform="translate(0 12.805)"><path class="x" d="M622.055,1242.8a1.927,1.927,0,0,1-.166.257,1.074,1.074,0,0,1-.07.093,1.438,1.438,0,0,1-.926.573,1.337,1.337,0,0,1-.2.009,1.739,1.739,0,0,1-.753-.225,2.923,2.923,0,0,1-.344-.216c-1.812-1.3-3.658-5.11-4.113-6.17a10.387,10.387,0,0,1-.75-6.463,5.042,5.042,0,0,1,1.264-2.379,2.581,2.581,0,0,1,.2-.181,2.688,2.688,0,0,1,1.082-.565c.033-.01.064-.017.1-.025s.06-.012.09-.016a2.675,2.675,0,0,1,1.132.044c.079.02.156.042.232.067a3.751,3.751,0,0,1,1.6,1.064,7.088,7.088,0,0,1,1.432,3.067,25.687,25.687,0,0,1,.624,5.894C622.5,1239.088,622.841,1241.4,622.055,1242.8Z" transform="translate(-614.506 -1227.446)"/><path class="w" d="M624.821,1242.709a27.714,27.714,0,0,0,1.823,3.751,2.9,2.9,0,0,1-.344-.216,27.619,27.619,0,0,1-1.848-3.969,28.449,28.449,0,0,1-1.236-4.329,27.742,27.742,0,0,1-.525-4.449c-.03-.755-.026-1.511.011-2.266a2.619,2.619,0,0,1,.2-.181,26.679,26.679,0,0,0,0,2.976,27.652,27.652,0,0,0,.61,4.406A28.073,28.073,0,0,0,624.821,1242.709Z" transform="translate(-621.206 -1230.404)"/><path class="w" d="M633.593,1243.906a1.355,1.355,0,0,1-.2.009c-.021-.057-.041-.115-.062-.173q-.762-2.163-1.328-4.392c-.38-1.48-.7-2.975-.979-4.478s-.514-3.023-.72-4.543c-.118-.87-.225-1.744-.325-2.615.033-.01.064-.017.1-.025s.06-.012.09-.016q.179,1.575.4,3.145c.214,1.518.456,3.033.745,4.538s.623,2.991,1.016,4.468C632.694,1241.2,633.111,1242.567,633.593,1243.906Z" transform="translate(-627.205 -1227.634)"/><path class="w" d="M640.786,1243.183a1.926,1.926,0,0,1-.166.257c-.056-.577-.115-1.152-.177-1.73q-.222-2.057-.484-4.111a35.551,35.551,0,0,0-.691-3.975,43.17,43.17,0,0,0-1.937-5.706c.079.02.156.042.232.067.3.749.592,1.5.866,2.266a33.3,33.3,0,0,1,1.128,3.77c.3,1.322.478,2.666.647,4.009Q640.528,1240.6,640.786,1243.183Z" transform="translate(-633.236 -1227.833)"/></g><g transform="translate(1.048 26.912)"><rect class="h" width="13.148" height="4.189"/><path class="y" d="M637.481,1329.411l-.306,2.765-.963,8.705h-8.378l-.63-5.7-.639-5.773Z" transform="translate(-625.449 -1325.222)"/><path class="z" d="M637.481,1329.411l-.306,2.765q-.368.083-.736.171a64.927,64.927,0,0,0-9.234,2.837l-.639-5.773Z" transform="translate(-625.449 -1325.222)"/></g></g><g transform="translate(122.98 7.858)"><g transform="translate(0 24.977)"><path class="aa" d="M1290.974,1308.567c-1.034-1.209-2.859-1.028-4.191-.9-.139.014-.273.027-.4.038-.214.018-.432.032-.648.046q-.043-.316-.095-.626a.742.742,0,0,0-.733-.622h-13a.742.742,0,0,0-.734.622,20.363,20.363,0,0,0-.274,3.339,18.948,18.948,0,0,0,1.136,6.608,10.185,10.185,0,0,0,3.615,5.01h5.512a10.022,10.022,0,0,0,3.519-4.77,9.554,9.554,0,0,0,6.409-5.31C1291.714,1310.571,1291.673,1309.382,1290.974,1308.567Zm-1.1,2.91a8.008,8.008,0,0,1-4.66,4.269,19.6,19.6,0,0,0,.7-5.279c0-.263-.006-.525-.015-.784-.007-.2-.019-.4-.032-.6.21-.014.42-.026.63-.044.131-.011.271-.025.416-.039,1.041-.1,2.466-.244,3.048.437C1290.421,1309.968,1290.1,1310.943,1289.872,1311.477Z" transform="translate(-1270.903 -1306.505)"/><path class="ab" d="M1291.111,1325c0,5.278-1.969,9.79-4.749,11.618h-5.512a10.184,10.184,0,0,1-3.615-5.01,38.76,38.76,0,0,0,7.469-3.146,46.523,46.523,0,0,0,6.393-4.247C1291.105,1324.474,1291.111,1324.736,1291.111,1325Z" transform="translate(-1276.098 -1321.037)"/></g><g transform="translate(4.08)"><path class="ac" d="M1295.97,1215.221a9.049,9.049,0,0,1,.627-2.266,7.772,7.772,0,0,1,1.128-2.1c.075.13-.143.5-.2.648-.1.261-.187.525-.264.793a5.291,5.291,0,0,0-.231,1.632,5.584,5.584,0,0,0,.12.912,9.591,9.591,0,0,0,.637,1.99,3.422,3.422,0,0,1,.733-3.232,6.73,6.73,0,0,0,1.2-2.974,5.581,5.581,0,0,0-.628-2.953c-.765-1.444-2.165-2.466-2.784-4a3.665,3.665,0,0,1-.051-2.523c-.185.046-.409.356-.527.512a2.987,2.987,0,0,0-.379.664,4.61,4.61,0,0,0,.379,3.539,5.469,5.469,0,0,1,.744,2.321c-.032,1.115-.879,2.008-1.547,2.9a4.539,4.539,0,0,0,.1,6.458c.658.775,1.421,1.454,2.061,2.242A6.084,6.084,0,0,1,1295.97,1215.221Z" transform="translate(-1293.641 -1195.078)"/><path class="ac" d="M1318.717,1176.155a5.592,5.592,0,0,1-1.264-2.1,3.7,3.7,0,0,1,.039-2.421c.3-.766.894-1.4,1.115-2.193a2.538,2.538,0,0,0-.379-2.135,3.059,3.059,0,0,1,1.15,3.337,9.573,9.573,0,0,1-.434,1.053A5.25,5.25,0,0,0,1318.717,1176.155Z" transform="translate(-1313.029 -1167.309)"/></g></g></g></g><g transform="translate(0 75.045)"><path class="ad" d="M504.048,1006.869v-9.115a3.848,3.848,0,0,0-3.837-3.837H467.933a3.848,3.848,0,0,0-3.837,3.837v9.115a3.848,3.848,0,0,0,3.837,3.837h27.108c3.035,2.49,7.947,6.639,7.947,6.639l-1.808-6.764A3.852,3.852,0,0,0,504.048,1006.869Z" transform="translate(-464.096 -993.917)"/><g transform="translate(10.741 7.028)"><circle class="c" cx="1.042" cy="1.042" r="1.042" transform="translate(0 0.322)"/><circle class="c" cx="1.042" cy="1.042" r="1.042" transform="translate(7.871 0.807) rotate(-22.792)"/><circle class="c" cx="1.042" cy="1.042" r="1.042" transform="translate(16.386 0.322)"/></g></g><g transform="translate(146.014 49.393)"><path class="ad" d="M1339.806,850.96H1287.5a7.767,7.767,0,0,0-7.745,7.745v19.919a7.767,7.767,0,0,0,7.745,7.745h.443l-10.1,15.894,26.533-15.894h35.431a7.768,7.768,0,0,0,7.745-7.745V858.7A7.768,7.768,0,0,0,1339.806,850.96Z" transform="translate(-1277.842 -850.96)"/><g transform="translate(7.049 6.398)"><circle class="h" cx="9.902" cy="9.902" r="9.902" transform="translate(0 19.274) rotate(-76.717)"/><path class="c" d="M1393.841,894.672l-9.808,6.077v-11.54A11.524,11.524,0,0,1,1393.841,894.672Z" transform="translate(-1372.027 -888.743)"/><path class="w" d="M1394.99,926.724a11.067,11.067,0,0,1-8.51,10.766l-2.448-10.661,9.374-5.81A10.993,10.993,0,0,1,1394.99,926.724Z" transform="translate(-1372.027 -914.845)"/></g><g transform="translate(42.76 8.477)"><path class="ae" d="M1517.052,898.2a.905.905,0,1,0,.906.906A.905.905,0,0,0,1517.052,898.2Z" transform="translate(-1516.147 -898.201)"/><path class="ae" d="M1548.38,898.2a.905.905,0,1,0,.905.906A.906.906,0,0,0,1548.38,898.2Z" transform="translate(-1541.853 -898.201)"/><circle class="ae" cx="0.905" cy="0.905" r="0.905" transform="translate(11.242 0)"/></g><g transform="translate(37.139 26.339)"><path class="ae" d="M1485.725,997.748a.905.905,0,1,0,.906.905A.906.906,0,0,0,1485.725,997.748Z" transform="translate(-1484.82 -997.748)"/><path class="ae" d="M1517.052,997.748a.905.905,0,1,0,.906.905A.905.905,0,0,0,1517.052,997.748Z" transform="translate(-1510.526 -997.748)"/><path class="ae" d="M1548.38,997.748a.905.905,0,1,0,.905.905A.905.905,0,0,0,1548.38,997.748Z" transform="translate(-1536.232 -997.748)"/><path class="ae" d="M1579.705,997.748a.905.905,0,1,0,.906.905A.905.905,0,0,0,1579.705,997.748Z" transform="translate(-1561.937 -997.748)"/><path class="ae" d="M1611.032,997.748a.905.905,0,1,0,.906.905A.906.906,0,0,0,1611.032,997.748Z" transform="translate(-1587.642 -997.748)"/></g><g transform="translate(37.139 29.473)"><path class="ae" d="M1485.725,1015.213a.906.906,0,1,0,.906.906A.906.906,0,0,0,1485.725,1015.213Z" transform="translate(-1484.82 -1015.213)"/><path class="ae" d="M1517.052,1015.213a.906.906,0,1,0,.906.906A.906.906,0,0,0,1517.052,1015.213Z" transform="translate(-1510.526 -1015.213)"/><path class="ae" d="M1548.38,1015.213a.906.906,0,1,0,.905.906A.906.906,0,0,0,1548.38,1015.213Z" transform="translate(-1536.232 -1015.213)"/><path class="ae" d="M1579.705,1015.213a.906.906,0,1,0,.906.906A.906.906,0,0,0,1579.705,1015.213Z" transform="translate(-1561.937 -1015.213)"/><path class="ae" d="M1611.032,1015.213a.906.906,0,1,0,.906.906A.906.906,0,0,0,1611.032,1015.213Z" transform="translate(-1587.642 -1015.213)"/></g><rect class="h" width="18.804" height="1.814" transform="translate(39.885 22.226)"/><rect class="c" width="18.804" height="1.814" transform="translate(39.885 4.31)"/><g transform="translate(37.139 17.435)"><path class="ae" d="M1485.725,948.126a.906.906,0,1,0,.906.906A.906.906,0,0,0,1485.725,948.126Z" transform="translate(-1484.82 -948.126)"/><path class="ae" d="M1517.052,948.126a.906.906,0,1,0,.906.906A.905.905,0,0,0,1517.052,948.126Z" transform="translate(-1510.526 -948.126)"/><path class="ae" d="M1548.38,948.126a.906.906,0,1,0,.905.906A.906.906,0,0,0,1548.38,948.126Z" transform="translate(-1536.232 -948.126)"/><path class="ae" d="M1579.705,948.126a.906.906,0,1,0,.906.906A.906.906,0,0,0,1579.705,948.126Z" transform="translate(-1561.937 -948.126)"/><path class="ae" d="M1611.032,948.126a.906.906,0,1,0,.906.906A.906.906,0,0,0,1611.032,948.126Z" transform="translate(-1587.642 -948.126)"/></g><rect class="w" width="18.804" height="1.814" transform="translate(39.885 13.268)"/></g><g transform="translate(32.595)"><circle class="ad" cx="11.905" cy="11.905" r="11.905" transform="matrix(0.263, -0.965, 0.965, 0.263, 0, 22.973)"/><path class="c" d="M706.713,615.068l1.722-8.425-.4-.084-1.722,8.427a.723.723,0,0,0-.645.575.715.715,0,0,0,.1.534l-4.028,5.09.323.256,3.953-5,.065-.08a.679.679,0,0,0,.152.049.7.7,0,0,0,.208.011.722.722,0,0,0,.277-1.356Z" transform="translate(-691.691 -601.02)"/></g></g></g></svg>